<svg width="32" height="32" viewBox="0 0 32 32" fill="none" xmlns="http://www.w3.org/2000/svg">
    <path fill-rule="evenodd" clip-rule="evenodd" d="M27.1972 4.80298C26.9043 4.51009 26.4294 4.51009 26.1365 4.80298L6.0835 24.856L6.0835 12C6.0835 11.5858 5.74771 11.25 5.3335 11.25C4.91928 11.25 4.5835 11.5858 4.5835 12L4.5835 26.6666C4.5835 26.97 4.76623 27.2435 5.04648 27.3596C5.32674 27.4756 5.64933 27.4115 5.86383 27.197L27.1972 5.86364C27.4901 5.57075 27.4901 5.09588 27.1972 4.80298ZM20.7502 26.6666C20.7502 26.2524 20.4144 25.9166 20.0002 25.9166L10.6668 25.9166C10.2526 25.9166 9.91683 26.2524 9.91683 26.6666C9.91683 27.0809 10.2526 27.4166 10.6668 27.4166L20.0002 27.4166C20.4144 27.4166 20.7502 27.0809 20.7502 26.6666Z" fill="#181D25"/>
</svg>
