<svg width="113" height="24" viewBox="0 0 113 24" fill="none" xmlns="http://www.w3.org/2000/svg">
    <g id="Logo" clip-path="url(#clip0_290_27974)">
        <path id="Union" fill-rule="evenodd" clip-rule="evenodd" d="M41.9286 9.50602H38.8563V5.20482H41.9286V0H47.025V5.20482H51.2539V9.50602H47.025V17.6386C47.025 18.2892 47.1334 18.759 47.4226 19.0482C47.7117 19.3373 48.1816 19.4819 48.8322 19.4819H51.4708V23.7831H47.2418C43.6997 23.7831 41.9286 22.012 41.9286 18.4699V9.50602ZM19.0316 23.7831V19.4819H18.4533C18.0195 19.4819 17.7304 19.4096 17.5496 19.2289C17.3328 19.0843 17.2605 18.759 17.2605 18.2892V11.747C17.2605 9.57831 16.5376 7.87952 15.0918 6.72289C13.646 5.56627 11.6219 4.98795 9.01953 4.98795C6.48941 4.98795 4.50145 5.53012 2.98338 6.57831C1.46531 7.62651 0.597844 9.10843 0.453264 10.988H5.36893C5.47736 10.3012 5.83881 9.75904 6.45326 9.3253C7.03158 8.92771 7.82676 8.71084 8.76651 8.71084C9.81471 8.71084 10.646 8.96385 11.2966 9.46988C11.9111 9.9759 12.2364 10.6265 12.2364 11.4578V12.3614H8.54965C5.76651 12.3614 3.63398 12.9036 2.1882 13.9879C0.742419 15.0723 0.0195312 16.5904 0.0195312 18.5422C0.0195312 20.2771 0.63399 21.6506 1.89905 22.5904C3.16411 23.5301 4.82676 24 6.92314 24C8.29664 24 9.4894 23.747 10.5015 23.1687C11.4774 22.6265 12.3087 21.8313 12.9954 20.747C12.9231 22.7711 14.0798 23.7831 16.4292 23.7831H19.0316ZM8.5135 15.759H12.2364V16.1205C12.2002 17.4217 11.8027 18.4337 11.0436 19.1928C10.2484 19.9518 9.20025 20.3132 7.89904 20.3132C7.03157 20.3132 6.38097 20.1325 5.87495 19.7349C5.36893 19.3735 5.15206 18.8313 5.15206 18.1807C5.15206 17.4217 5.44121 16.8434 6.01953 16.4096C6.59784 15.9759 7.42916 15.759 8.5135 15.759ZM37.7742 23.7831V5.20482H32.6778V14.3494C32.6778 16.0843 32.3164 17.4217 31.6296 18.3614C30.9067 19.3012 29.9308 19.7711 28.6658 19.7711C27.4369 19.7711 26.4971 19.3735 25.9188 18.506C25.3405 17.6386 25.0513 16.3735 25.0513 14.6747V5.20482H19.955V15.2892C19.955 18.4337 20.6417 20.6747 22.0152 22.012C23.3887 23.3494 25.1598 24 27.3284 24C28.5574 24 29.6417 23.7831 30.5092 23.3494C31.3766 22.9157 32.1357 22.3373 32.7863 21.5422L33.2561 23.7831H37.7742ZM53.084 19.4819C53.8792 20.9277 55.0358 22.0482 56.5177 22.8434C57.9996 23.6386 59.7346 24 61.6864 24C63.6382 24 65.337 23.6386 66.8189 22.8434C68.3008 22.0482 69.4575 20.9639 70.2526 19.5181C71.0478 18.0723 71.4816 16.4096 71.4816 14.494C71.4816 12.6145 71.0478 10.9518 70.2526 9.50602C69.4575 8.06024 68.3008 6.9759 66.8189 6.18072C65.337 5.38554 63.6382 4.98795 61.6864 4.98795C59.7346 4.98795 57.9996 5.38554 56.5177 6.18072C55.0358 6.9759 53.8792 8.06024 53.084 9.50602C52.2888 10.9518 51.8912 12.6145 51.8912 14.494C51.8912 16.3735 52.2888 18.0361 53.084 19.4819ZM66.3129 14.494C66.3129 16.0843 65.8792 17.3855 65.0478 18.3614C64.2165 19.3735 63.096 19.8434 61.6864 19.8434C60.2767 19.8434 59.1563 19.3735 58.3249 18.3614C57.4936 17.3855 57.096 16.0843 57.096 14.494C57.096 12.9036 57.4936 11.6386 58.3249 10.6265C59.1563 9.6506 60.2767 9.14458 61.6864 9.14458C63.096 9.14458 64.2165 9.6506 65.0478 10.6265C65.8792 11.6386 66.3129 12.9036 66.3129 14.494ZM89.5759 7.01205C90.9494 8.38554 91.6722 10.5904 91.6722 13.6988V23.7831H86.5759V13.9879C86.5759 10.8072 85.3108 9.18072 82.8168 9.18072C81.4795 9.18072 80.4674 9.6506 79.7446 10.5181C79.0217 11.4217 78.6602 12.6867 78.6602 14.2771V23.7831H73.5638V5.20482H78.0096L78.4795 7.51807C79.1301 6.72289 79.8891 6.10843 80.8289 5.6747C81.7325 5.24096 82.853 4.98795 84.2265 4.98795C86.3951 4.98795 88.1662 5.6747 89.5759 7.01205ZM97.8835 6.18072C96.4738 6.9759 95.3895 8.06024 94.5943 9.50602C93.7991 10.9518 93.4377 12.6145 93.4377 14.5301C93.4377 16.4458 93.8353 18.1084 94.6304 19.5542C95.4256 21 96.5823 22.0843 98.1003 22.8434C99.6184 23.6386 101.389 24 103.486 24C105.076 24 106.486 23.747 107.715 23.1687C108.944 22.5904 109.92 21.8313 110.679 20.8193C111.402 19.8434 111.871 18.7229 112.088 17.494H107.064C106.847 18.3614 106.377 19.0482 105.691 19.4819C105.004 19.9157 104.136 20.1325 103.124 20.1325C101.823 20.1325 100.775 19.7711 100.052 18.9759C99.2931 18.2169 98.8594 17.1687 98.7509 15.7952V15.6506H112.233C112.305 15.1446 112.377 14.5663 112.377 13.9157C112.341 12.1084 111.908 10.5542 111.112 9.21687C110.317 7.87952 109.197 6.83132 107.751 6.10843C106.305 5.38554 104.679 4.98795 102.799 4.98795C100.92 4.98795 99.2931 5.38554 97.8835 6.18072ZM105.871 9.72289C106.63 10.3373 107.1 11.2048 107.281 12.3253H98.8594C99.0039 11.241 99.4377 10.4096 100.197 9.75904C100.956 9.10843 101.896 8.78313 103.016 8.78313C104.173 8.78313 105.112 9.10843 105.871 9.72289Z" fill="#0267FF"/>
    </g>
    <defs>
        <clipPath id="clip0_290_27974">
            <rect width="113" height="24" fill="white"/>
        </clipPath>
    </defs>
</svg>
